<?xml version="1.0" encoding="UTF-8" standalone="no"?>
<!-- Created with Inkscape (http://www.inkscape.org/) -->

<svg
   xmlns:dc="http://purl.org/dc/elements/1.1/"
   xmlns:cc="http://creativecommons.org/ns#"
   xmlns:rdf="http://www.w3.org/1999/02/22-rdf-syntax-ns#"
   xmlns:svg="http://www.w3.org/2000/svg"
   xmlns="http://www.w3.org/2000/svg"
   xmlns:xlink="http://www.w3.org/1999/xlink"
   xmlns:sodipodi="http://sodipodi.sourceforge.net/DTD/sodipodi-0.dtd"
   xmlns:inkscape="http://www.inkscape.org/namespaces/inkscape"
   width="297mm"
   height="170mm"
   viewBox="0 0 1052.3622 602.3622"
   id="svg2"
   version="1.1"
   inkscape:version="0.92.2 (30a58d1, 2017-08-07)"
   sodipodi:docname="complexity.svg">
  <defs
     id="defs4">
    <marker
       inkscape:stockid="Arrow1Lstart"
       orient="auto"
       refY="0"
       refX="0"
       id="Arrow1Lstart"
       style="overflow:visible"
       inkscape:isstock="true">
      <path
         id="path448296"
         d="M 0,0 5,-5 -12.5,0 5,5 Z"
         style="fill:#000000;fill-opacity:1;fill-rule:evenodd;stroke:#000000;stroke-width:1.00000003pt;stroke-opacity:1"
         transform="matrix(0.8,0,0,0.8,10,0)"
         inkscape:connector-curvature="0" />
    </marker>
    <symbol
       id="icon-truck"
       viewBox="0 0 29 28">
      <title
         id="title68596">truck</title>
      <path
         d="m 10,22 c 0,-1.094 -0.906,-2 -2,-2 -1.094,0 -2,0.906 -2,2 0,1.094 0.906,2 2,2 1.094,0 2,-0.906 2,-2 z M 4,14 h 6 V 10 H 7.531 C 7.468,10 7.234,10.094 7.187,10.141 L 4.14,13.188 c -0.047,0.047 -0.141,0.281 -0.141,0.344 v 0.469 z m 20,8 c 0,-1.094 -0.906,-2 -2,-2 -1.094,0 -2,0.906 -2,2 0,1.094 0.906,2 2,2 1.094,0 2,-0.906 2,-2 z M 28,5 v 16 c 0,1.156 -1.219,1 -2,1 0,2.203 -1.797,4 -4,4 -2.203,0 -4,-1.797 -4,-4 h -6 c 0,2.203 -1.797,4 -4,4 C 5.797,26 4,24.203 4,22 H 3 C 2.219,22 1,22.156 1,21 1,20.453 1.453,20 2,20 V 15 C 2,13.891 1.844,12.656 2.703,11.797 L 5.797,8.703 C 6.188,8.312 6.938,8 7.5,8 H 10 V 5 c 0,-0.547 0.453,-1 1,-1 h 16 c 0.547,0 1,0.453 1,1 z"
         id="path68598"
         inkscape:connector-curvature="0" />
    </symbol>
    <symbol
       id="icon-file-o"
       viewBox="0 0 24 28">
      <title
         id="title67796">file-o</title>
      <path
         d="m 22.937,5.938 c 0.578,0.578 1.062,1.734 1.062,2.562 v 18 c 0,0.828 -0.672,1.5 -1.5,1.5 h -21 c -0.828,0 -1.5,-0.672 -1.5,-1.5 v -25 c 0,-0.828 0.672,-1.5 1.5,-1.5 h 14 c 0.828,0 1.984,0.484 2.562,1.062 z M 16,2.125 V 8 h 5.875 C 21.781,7.734 21.641,7.469 21.531,7.359 L 16.64,2.468 C 16.531,2.359 16.265,2.218 15.999,2.124 Z M 22,26 V 10 H 15.5 C 14.672,10 14,9.328 14,8.5 V 2 H 2 v 24 z"
         id="path67798"
         inkscape:connector-curvature="0" />
    </symbol>
    <symbol
       id="icon-file-text-o"
       viewBox="0 0 24 28">
      <title
         id="title68771">file-text-o</title>
      <path
         d="m 22.937,5.938 c 0.578,0.578 1.062,1.734 1.062,2.562 v 18 c 0,0.828 -0.672,1.5 -1.5,1.5 h -21 c -0.828,0 -1.5,-0.672 -1.5,-1.5 v -25 c 0,-0.828 0.672,-1.5 1.5,-1.5 h 14 c 0.828,0 1.984,0.484 2.562,1.062 z M 16,2.125 V 8 h 5.875 C 21.781,7.734 21.641,7.469 21.531,7.359 L 16.64,2.468 C 16.531,2.359 16.265,2.218 15.999,2.124 Z M 22,26 V 10 H 15.5 C 14.672,10 14,9.328 14,8.5 V 2 H 2 V 26 Z M 6,12.5 C 6,12.219 6.219,12 6.5,12 h 11 c 0.281,0 0.5,0.219 0.5,0.5 v 1 C 18,13.781 17.781,14 17.5,14 H 6.5 C 6.219,14 6,13.781 6,13.5 Z M 17.5,16 c 0.281,0 0.5,0.219 0.5,0.5 v 1 C 18,17.781 17.781,18 17.5,18 H 6.5 C 6.219,18 6,17.781 6,17.5 v -1 C 6,16.219 6.219,16 6.5,16 Z m 0,4 c 0.281,0 0.5,0.219 0.5,0.5 v 1 C 18,21.781 17.781,22 17.5,22 H 6.5 C 6.219,22 6,21.781 6,21.5 v -1 C 6,20.219 6.219,20 6.5,20 Z"
         id="path68773"
         inkscape:connector-curvature="0" />
    </symbol>
    <symbol
       id="icon-industry"
       viewBox="0 0 28 28">
      <title
         id="title70541">industry</title>
      <path
         d="M 7,0 C 7.547,0 8,0.453 8,1 V 14.922 L 16.375,8.219 C 16.547,8.078 16.781,8 17,8 c 0.547,0 1,0.453 1,1 v 5.922 L 26.375,8.219 C 26.547,8.078 26.781,8 27,8 c 0.547,0 1,0.453 1,1 v 18 c 0,0.547 -0.453,1 -1,1 H 1 C 0.453,28 0,27.547 0,27 V 1 C 0,0.453 0.453,0 1,0 Z"
         id="path70543"
         inkscape:connector-curvature="0" />
    </symbol>
    <symbol
       id="icon-cc-visa"
       viewBox="0 0 36 28">
      <title
         id="title69926">cc-visa</title>
      <path
         d="m 30.859,15.469 h -2.156 c 0,0 0.219,-0.578 1.031,-2.797 -0.016,0.016 0.219,-0.578 0.344,-0.953 l 0.187,0.859 c 0.484,2.391 0.594,2.891 0.594,2.891 z M 8.297,14.453 7.391,9.844 C 7.266,9.203 6.782,9 6.219,9 H 2.031 L 2,9.203 c 2.875,0.734 5.234,2.297 6.297,5.25 z M 11.094,9 8.563,15.844 8.297,14.453 C 7.75,13 6.422,11.656 4.922,11.047 l 2.109,7.969 H 9.765 L 13.843,9 h -2.75 z m 2.172,10.031 H 15.86 L 17.485,9 h -2.594 z m 12,-9.781 C 24.75,9.047 23.938,8.828 22.938,8.828 c -2.562,0 -4.359,1.359 -4.375,3.313 -0.016,1.437 1.281,2.234 2.266,2.719 1.016,0.484 1.344,0.812 1.344,1.25 0,0.672 -0.812,0.969 -1.547,0.969 -1.047,0 -1.609,-0.125 -2.438,-0.516 l -0.344,-0.172 -0.359,2.25 c 0.609,0.281 1.719,0.531 2.891,0.531 2.719,0.016 4.484,-1.344 4.516,-3.422 0,-1.141 -0.703,-2 -2.188,-2.719 -0.906,-0.453 -1.453,-0.781 -1.453,-1.25 0,-0.422 0.469,-0.859 1.484,-0.859 0.844,-0.016 1.469,0.156 1.937,0.375 l 0.234,0.125 z M 31.906,9 h -2 c -0.625,0 -1.094,0.187 -1.359,0.844 l -3.844,9.188 h 2.719 c 0.438,-1.234 0.547,-1.5 0.547,-1.5 h 3.313 c 0,0 0.078,0.344 0.313,1.5 h 2.406 z M 36,4 v 20 c 0,1.094 -0.906,2 -2,2 H 2 C 0.906,26 0,25.094 0,24 V 4 C 0,2.906 0.906,2 2,2 h 32 c 1.094,0 2,0.906 2,2 z"
         id="path69928"
         inkscape:connector-curvature="0" />
    </symbol>
    <symbol
       id="icon-cc-paypal"
       viewBox="0 0 36 28">
      <title
         id="title69946">cc-paypal</title>
      <path
         d="m 11.641,14.156 c 0,0.766 -0.609,1.344 -1.375,1.344 -0.578,0 -1,-0.328 -1,-0.938 0,-0.766 0.594,-1.375 1.359,-1.375 0.578,0 1.016,0.359 1.016,0.969 z m 12.265,-2.328 c 0,0.938 -0.562,1.125 -1.375,1.125 l -0.5,0.016 0.266,-1.672 c 0.016,-0.109 0.094,-0.172 0.203,-0.172 h 0.281 c 0.531,0 1.125,0.031 1.125,0.703 z m 5.485,2.328 c 0,0.766 -0.609,1.344 -1.359,1.344 -0.578,0 -1.016,-0.328 -1.016,-0.938 0,-0.766 0.594,-1.375 1.359,-1.375 0.578,0 1.016,0.359 1.016,0.969 z M 8.016,11.484 C 8.016,10.171 7,9.734 5.844,9.734 h -2.5 c -0.156,0 -0.313,0.125 -0.328,0.297 L 2,16.406 c -0.016,0.125 0.078,0.25 0.203,0.25 h 1.188 c 0.172,0 0.328,-0.125 0.344,-0.297 L 4.016,14.64 c 0.063,-0.453 0.828,-0.297 1.125,-0.297 1.781,0 2.875,-1.062 2.875,-2.859 z m 4.828,4.875 0.641,-4.078 c 0.016,-0.125 -0.078,-0.25 -0.203,-0.25 h -1.188 c -0.234,0 -0.25,0.344 -0.266,0.516 -0.359,-0.531 -0.891,-0.625 -1.484,-0.625 -1.531,0 -2.703,1.344 -2.703,2.828 0,1.219 0.766,2.016 1.984,2.016 0.562,0 1.266,-0.25 1.656,-0.688 -0.031,0.094 -0.063,0.234 -0.063,0.328 0,0.141 0.063,0.25 0.203,0.25 h 1.078 c 0.172,0 0.313,-0.125 0.344,-0.297 z m 6.984,-4.109 c 0,-0.109 -0.094,-0.219 -0.203,-0.219 h -1.203 c -0.109,0 -0.219,0.063 -0.281,0.156 l -1.656,2.438 -0.688,-2.344 C 15.75,12.14 15.61,12.031 15.453,12.031 h -1.172 c -0.109,0 -0.203,0.109 -0.203,0.219 0,0.078 1.219,3.609 1.328,3.938 -0.172,0.234 -1.281,1.687 -1.281,1.875 0,0.109 0.094,0.203 0.203,0.203 h 1.203 c 0.109,0 0.219,-0.063 0.281,-0.156 l 3.984,-5.75 c 0.031,-0.031 0.031,-0.063 0.031,-0.109 z m 5.938,-0.766 c 0,-1.313 -1.016,-1.75 -2.172,-1.75 H 21.11 c -0.172,0 -0.328,0.125 -0.344,0.297 l -1.016,6.375 c -0.016,0.125 0.078,0.25 0.203,0.25 h 1.281 c 0.125,0 0.219,-0.094 0.25,-0.203 l 0.281,-1.813 c 0.063,-0.453 0.828,-0.297 1.125,-0.297 1.781,0 2.875,-1.062 2.875,-2.859 z m 4.828,4.875 0.641,-4.078 c 0.016,-0.125 -0.078,-0.25 -0.203,-0.25 h -1.188 c -0.234,0 -0.25,0.344 -0.266,0.516 -0.344,-0.531 -0.875,-0.625 -1.484,-0.625 -1.531,0 -2.703,1.344 -2.703,2.828 0,1.219 0.766,2.016 1.984,2.016 0.578,0 1.281,-0.25 1.656,-0.688 -0.016,0.094 -0.063,0.234 -0.063,0.328 0,0.141 0.063,0.25 0.203,0.25 h 1.078 c 0.172,0 0.313,-0.125 0.344,-0.297 z M 34,9.969 V 9.953 C 34,9.828 33.906,9.734 33.797,9.734 h -1.156 c -0.094,0 -0.187,0.078 -0.203,0.172 l -1.016,6.5 -0.016,0.031 c 0,0.109 0.094,0.219 0.219,0.219 h 1.031 c 0.156,0 0.313,-0.125 0.328,-0.297 z M 6.125,12.063 C 6,12.86 5.469,12.954 4.781,12.954 L 4.265,12.97 4.531,11.298 C 4.547,11.189 4.64,11.126 4.734,11.126 h 0.297 c 0.703,0 1.234,0.094 1.094,0.938 z M 36,4 v 20 c 0,1.094 -0.906,2 -2,2 H 2 C 0.906,26 0,25.094 0,24 V 4 C 0,2.906 0.906,2 2,2 h 32 c 1.094,0 2,0.906 2,2 z"
         id="path69948"
         inkscape:connector-curvature="0" />
    </symbol>
    <symbol
       id="icon-gift"
       viewBox="0 0 24 28">
      <title
         id="title68181">gift</title>
      <path
         d="M 14.5,21.187 V 9.999 h -5 v 11.188 c 0,0.547 0.453,0.812 1,0.812 h 3 c 0.547,0 1,-0.266 1,-0.812 z M 7.375,8 h 3.047 L 8.453,5.484 C 8.281,5.281 7.906,5 7.375,5 c -0.828,0 -1.5,0.672 -1.5,1.5 0,0.828 0.672,1.5 1.5,1.5 z M 18.125,6.5 C 18.125,5.672 17.453,5 16.625,5 16.094,5 15.719,5.281 15.547,5.484 L 13.594,8 h 3.031 c 0.828,0 1.5,-0.672 1.5,-1.5 z m 5.875,4 v 5 C 24,15.781 23.781,16 23.5,16 H 22 v 6.5 C 22,23.328 21.328,24 20.5,24 H 3.5 C 2.672,24 2,23.328 2,22.5 V 16 H 0.5 C 0.219,16 0,15.781 0,15.5 v -5 C 0,10.219 0.219,10 0.5,10 H 7.375 C 5.438,10 3.875,8.437 3.875,6.5 3.875,4.563 5.438,3 7.375,3 8.422,3 9.391,3.438 10,4.203 l 2,2.578 2,-2.578 C 14.609,3.437 15.578,3 16.625,3 c 1.937,0 3.5,1.563 3.5,3.5 0,1.937 -1.563,3.5 -3.5,3.5 H 23.5 c 0.281,0 0.5,0.219 0.5,0.5 z"
         id="path68183"
         inkscape:connector-curvature="0" />
    </symbol>
    <symbol
       id="icon-bar-chart"
       viewBox="0 0 32 28">
      <title
         id="title68276">bar-chart</title>
      <path
         d="m 10,14 v 8 H 6 V 14 Z M 16,6 V 22 H 12 V 6 Z m 16,18 v 2 H 0 V 2 H 2 V 24 Z M 22,10 V 22 H 18 V 10 Z M 28,4 V 22 H 24 V 4 Z"
         id="path68278"
         inkscape:connector-curvature="0" />
    </symbol>
    <symbol
       id="icon-credit-card"
       viewBox="0 0 30 28">
      <title
         id="title68416">credit-card</title>
      <path
         d="M 27.5,2 C 28.875,2 30,3.125 30,4.5 v 19 C 30,24.875 28.875,26 27.5,26 H 2.5 C 1.125,26 0,24.875 0,23.5 V 4.5 C 0,3.125 1.125,2 2.5,2 Z M 2.5,4 C 2.234,4 2,4.234 2,4.5 V 8 H 28 V 4.5 C 28,4.234 27.766,4 27.5,4 Z m 25,20 C 27.766,24 28,23.766 28,23.5 V 14 H 2 v 9.5 C 2,23.766 2.234,24 2.5,24 Z M 4,22 v -2 h 4 v 2 z m 6,0 v -2 h 6 v 2 z"
         id="path68418"
         inkscape:connector-curvature="0" />
    </symbol>
    <symbol
       id="icon-twitter-square"
       viewBox="0 0 24 28">
      <title
         id="title68281">twitter-square</title>
      <path
         d="M 20,9.531 C 19.406,9.797 18.781,9.969 18.109,10.062 18.797,9.656 19.312,9 19.562,8.234 18.921,8.609 18.218,8.89 17.468,9.031 16.874,8.39 16.015,8 15.077,8 c -1.813,0 -3.281,1.469 -3.281,3.281 0,0.25 0.016,0.516 0.078,0.75 C 9.14,11.89 6.718,10.594 5.093,8.594 4.812,9.078 4.64,9.656 4.64,10.25 c 0,1.141 0.531,2.141 1.422,2.734 C 5.515,12.968 5,12.812 4.499,12.578 v 0.031 c 0,1.594 1.203,2.922 2.703,3.219 -0.281,0.078 -0.5,0.125 -0.797,0.125 -0.203,0 -0.406,-0.031 -0.609,-0.063 0.422,1.297 1.625,2.25 3.063,2.281 -1.125,0.875 -2.531,1.406 -4.078,1.406 -0.266,0 -0.531,-0.016 -0.781,-0.047 1.453,0.922 3.172,1.469 5.031,1.469 6.031,0 9.344,-5 9.344,-9.344 0,-0.141 0,-0.281 -0.016,-0.422 C 19,10.78 19.562,10.202 20,9.53 Z M 24,6.5 v 15 C 24,23.984 21.984,26 19.5,26 H 4.5 C 2.016,26 0,23.984 0,21.5 V 6.5 C 0,4.016 2.016,2 4.5,2 h 15 C 21.984,2 24,4.016 24,6.5 Z"
         id="path68283"
         inkscape:connector-curvature="0" />
    </symbol>
    <symbol
       id="icon-facebook-square"
       viewBox="0 0 24 28">
      <title
         id="title68286">facebook-square</title>
      <path
         d="M 19.5,2 C 21.984,2 24,4.016 24,6.5 v 15 c 0,2.484 -2.016,4.5 -4.5,4.5 h -2.938 v -9.297 h 3.109 l 0.469,-3.625 h -3.578 v -2.312 c 0,-1.047 0.281,-1.75 1.797,-1.75 L 20.265,9 V 5.766 C 19.937,5.719 18.796,5.625 17.484,5.625 c -2.766,0 -4.672,1.687 -4.672,4.781 v 2.672 H 9.687 v 3.625 h 3.125 V 26 H 4.499 c -2.484,0 -4.5,-2.016 -4.5,-4.5 v -15 c 0,-2.484 2.016,-4.5 4.5,-4.5 h 15 z"
         id="path68288"
         inkscape:connector-curvature="0" />
    </symbol>
    <symbol
       id="icon-bitcoin"
       viewBox="0 0 21 28">
      <title
         id="title69226">bitcoin</title>
      <path
         d="m 18.234,10 c 0.203,2.078 -0.672,3.328 -2.047,4.031 2.281,0.547 3.719,1.906 3.437,4.953 -0.359,3.797 -3.172,4.813 -7.203,5.031 v 3.984 h -2.406 v -3.922 c -0.609,0 -1.25,0 -1.906,-0.016 v 3.938 H 5.703 V 24.015 C 5.141,24.015 4.578,23.999 4,23.999 H 0.875 L 1.359,21.14 c 1.766,0.031 1.734,0 1.734,0 0.672,0 0.859,-0.484 0.906,-0.797 v -6.281 h 0.25 C 4.155,14.046 4.062,14.046 3.999,14.046 V 9.562 C 3.905,9.062 3.593,8.5 2.608,8.5 c 0,0 0.031,-0.031 -1.734,0 V 5.938 l 3.313,0.016 c 0.484,0 1,0 1.516,-0.016 V 2 H 8.109 V 5.859 C 8.75,5.843 9.39,5.828 10.015,5.828 V 2 h 2.406 v 3.938 c 3.094,0.266 5.547,1.219 5.812,4.062 z m -3.359,8.516 c 0,-3.094 -5.094,-2.641 -6.719,-2.641 v 5.281 c 1.625,0 6.719,0.344 6.719,-2.641 z m -1.109,-7.438 c 0,-2.828 -4.25,-2.406 -5.609,-2.406 v 4.797 c 1.359,0 5.609,0.313 5.609,-2.391 z"
         id="path69228"
         inkscape:connector-curvature="0" />
    </symbol>
    <symbol
       id="icon-eur"
       viewBox="0 0 16 28">
      <title
         id="title69191">eur</title>
      <path
         d="m 15.25,20.422 0.547,2.484 c 0.063,0.25 -0.078,0.5 -0.313,0.578 C 15.421,23.5 13.968,24 12.093,24 7.218,24 3.296,21.062 1.984,16.469 H 0.5 c -0.281,0 -0.5,-0.234 -0.5,-0.5 v -1.766 c 0,-0.266 0.219,-0.5 0.5,-0.5 H 1.531 C 1.515,13.203 1.515,12.609 1.547,12.062 H 0.5 C 0.219,12.062 0,11.843 0,11.562 V 9.781 C 0,9.5 0.219,9.281 0.5,9.281 H 2.031 C 3.422,4.906 7.422,2 12.094,2 c 1.625,0 2.969,0.344 3.031,0.359 0.125,0.031 0.234,0.125 0.313,0.234 0.063,0.109 0.078,0.25 0.047,0.375 L 14.813,5.452 C 14.75,5.718 14.485,5.874 14.219,5.796 14.203,5.796 13.141,5.53 12.031,5.53 9.406,5.53 7.203,6.952 6.156,9.28 h 7.313 c 0.156,0 0.297,0.063 0.391,0.187 0.094,0.109 0.141,0.266 0.109,0.406 l -0.375,1.781 c -0.047,0.234 -0.25,0.406 -0.5,0.406 H 5.469 c -0.047,0.5 -0.031,1.031 0,1.641 h 7.172 c 0.156,0 0.297,0.078 0.391,0.187 0.094,0.125 0.125,0.281 0.094,0.422 l -0.375,1.75 c -0.047,0.234 -0.25,0.406 -0.484,0.406 H 6.22 c 1,2.438 3.25,3.969 5.906,3.969 1.359,0 2.469,-0.375 2.484,-0.375 0.125,-0.047 0.281,-0.031 0.406,0.031 0.125,0.078 0.203,0.203 0.234,0.328 z"
         id="path69193"
         inkscape:connector-curvature="0" />
    </symbol>
    <symbol
       id="icon-dollar"
       viewBox="0 0 16 28">
      <title
         id="title69201">dollar</title>
      <path
         d="m 15.281,18.516 c 0,3.187 -2.281,5.703 -5.594,6.25 V 27.5 c 0,0.281 -0.219,0.5 -0.5,0.5 H 7.078 c -0.266,0 -0.5,-0.219 -0.5,-0.5 V 24.766 C 2.922,24.25 0.922,22.063 0.844,21.969 0.688,21.782 0.672,21.516 0.813,21.328 L 2.422,19.219 C 2.5,19.11 2.641,19.047 2.781,19.032 c 0.14,-0.015 0.281,0.031 0.375,0.141 0.031,0.016 2.219,2.109 4.984,2.109 1.531,0 3.187,-0.812 3.187,-2.578 0,-1.5 -1.844,-2.234 -3.953,-3.078 C 4.562,14.517 1.062,13.11 1.062,9.188 c 0,-2.875 2.25,-5.25 5.516,-5.875 V 0.501 c 0,-0.281 0.234,-0.5 0.5,-0.5 h 2.109 c 0.281,0 0.5,0.219 0.5,0.5 v 2.75 c 3.172,0.359 4.859,2.078 4.922,2.141 0.156,0.172 0.187,0.406 0.078,0.594 L 13.421,8.267 C 13.343,8.408 13.218,8.501 13.062,8.517 12.906,8.548 12.765,8.501 12.64,8.408 12.624,8.392 10.734,6.721 8.39,6.721 c -1.984,0 -3.359,0.984 -3.359,2.406 0,1.656 1.906,2.391 4.125,3.25 2.875,1.109 6.125,2.375 6.125,6.141 z"
         id="path69203"
         inkscape:connector-curvature="0" />
    </symbol>
    <symbol
       id="icon-google-plus-circle"
       viewBox="0 0 24 28">
      <title
         id="title70831">google-plus-circle</title>
      <path
         d="m 14.328,14.141 c 0,-0.344 -0.031,-0.672 -0.094,-1 H 8.578 v 2.063 h 3.391 c -0.25,1.656 -1.813,2.578 -3.391,2.578 -2.078,0 -3.734,-1.719 -3.734,-3.781 0,-2.062 1.656,-3.781 3.734,-3.781 0.875,0 1.75,0.297 2.391,0.922 l 1.625,-1.578 c -1.109,-1.031 -2.5,-1.563 -4.016,-1.563 -3.328,0 -6,2.688 -6,6 0,3.312 2.672,6 6,6 3.453,0 5.75,-2.438 5.75,-5.859 z m 5.391,0.718 h 1.703 V 13.14 H 19.719 V 11.421 H 18 v 1.719 h -1.719 v 1.719 H 18 v 1.719 h 1.719 z M 24,14 C 24,20.625 18.625,26 12,26 5.375,26 0,20.625 0,14 0,7.375 5.375,2 12,2 18.625,2 24,7.375 24,14 Z"
         id="path70833"
         inkscape:connector-curvature="0" />
    </symbol>
    <symbol
       id="icon-home"
       viewBox="0 0 26 28">
      <title
         id="title67791">home</title>
      <path
         d="M 22,15.5 V 23 c 0,0.547 -0.453,1 -1,1 h -6 v -6 h -4 v 6 H 5 C 4.453,24 4,23.547 4,23 V 15.5 C 4,15.469 4.016,15.437 4.016,15.406 L 13,8 21.984,15.406 C 22,15.437 22,15.469 22,15.5 Z m 3.484,-1.078 -0.969,1.156 c -0.078,0.094 -0.203,0.156 -0.328,0.172 H 24.14 c -0.125,0 -0.234,-0.031 -0.328,-0.109 L 12.999,6.625 2.186,15.641 C 2.077,15.719 1.952,15.766 1.811,15.75 1.686,15.734 1.561,15.672 1.483,15.578 L 0.514,14.422 C 0.342,14.219 0.373,13.891 0.577,13.719 L 11.811,4.36 c 0.656,-0.547 1.719,-0.547 2.375,0 l 3.813,3.187 V 4.5 c 0,-0.281 0.219,-0.5 0.5,-0.5 h 3 c 0.281,0 0.5,0.219 0.5,0.5 v 6.375 l 3.422,2.844 c 0.203,0.172 0.234,0.5 0.063,0.703 z"
         id="path67793"
         inkscape:connector-curvature="0" />
    </symbol>
    <symbol
       id="UpArrow">
      <title
         id="title5498">Up Arrow</title>
      <path
         d="M 36,9 58,31 V 46 L 42,30 V 62 H 30 V 30 L 14,46 V 31 Z"
         style="stroke:none"
         id="path5500"
         inkscape:connector-curvature="0" />
    </symbol>
  </defs>
  <sodipodi:namedview
     id="base"
     pagecolor="#ffffff"
     bordercolor="#666666"
     borderopacity="1.0"
     inkscape:pageopacity="0.0"
     inkscape:pageshadow="2"
     inkscape:zoom="0.5227564"
     inkscape:cx="103.43171"
     inkscape:cy="246.03056"
     inkscape:document-units="px"
     inkscape:current-layer="layer1"
     showgrid="false"
     inkscape:window-width="1920"
     inkscape:window-height="1016"
     inkscape:window-x="0"
     inkscape:window-y="27"
     inkscape:window-maximized="1" />
  <metadata
     id="metadata7">
    <rdf:RDF>
      <cc:Work
         rdf:about="">
        <dc:format>image/svg+xml</dc:format>
        <dc:type
           rdf:resource="http://purl.org/dc/dcmitype/StillImage" />
        <dc:title></dc:title>
      </cc:Work>
    </rdf:RDF>
  </metadata>
  <g
     inkscape:label="Layer 1"
     inkscape:groupmode="layer"
     id="layer1"
     transform="translate(0,-450)">
    <path
       inkscape:connector-curvature="0"
       id="path4999"
       d="M 688.65727,724.17399 V 951.93304"
       style="fill:none;stroke:#000000;stroke-width:9.37499986;stroke-linecap:butt;stroke-linejoin:miter;stroke-opacity:1;stroke-miterlimit:4;stroke-dasharray:9.37499986,9.37499986;stroke-dashoffset:0" />
    <path
       style="fill:none;stroke:#000000;stroke-width:9.37499986;stroke-linecap:butt;stroke-linejoin:miter;stroke-opacity:1;stroke-miterlimit:4;stroke-dasharray:9.37499986,9.37499986;stroke-dashoffset:0"
       d="M 925.38321,722.38061 V 950.13966"
       id="path5001"
       inkscape:connector-curvature="0" />
    <circle
       style="color:#000000;clip-rule:nonzero;display:inline;overflow:visible;visibility:visible;opacity:1;isolation:auto;mix-blend-mode:normal;color-interpolation:sRGB;color-interpolation-filters:linearRGB;solid-color:#000000;solid-opacity:1;fill:#ff4141;fill-opacity:1;fill-rule:nonzero;stroke:none;stroke-width:0.06401026;stroke-linecap:butt;stroke-linejoin:miter;stroke-miterlimit:4;stroke-dasharray:none;stroke-dashoffset:0;stroke-opacity:1;color-rendering:auto;image-rendering:auto;shape-rendering:auto;text-rendering:auto;enable-background:accumulate"
       id="path448259"
       cx="916.29675"
       cy="756.59387"
       r="120.51502" />
    <ellipse
       style="color:#000000;clip-rule:nonzero;display:inline;overflow:visible;visibility:visible;opacity:1;isolation:auto;mix-blend-mode:normal;color-interpolation:sRGB;color-interpolation-filters:linearRGB;solid-color:#000000;solid-opacity:1;fill:#19aeff;fill-opacity:1;fill-rule:nonzero;stroke:none;stroke-width:0.06401026;stroke-linecap:butt;stroke-linejoin:miter;stroke-miterlimit:4;stroke-dasharray:none;stroke-dashoffset:0;stroke-opacity:1;color-rendering:auto;image-rendering:auto;shape-rendering:auto;text-rendering:auto;enable-background:accumulate"
       id="path448257"
       cx="441.88843"
       cy="770.94092"
       rx="170.25139"
       ry="100.42918" />
    <ellipse
       style="color:#000000;clip-rule:nonzero;display:inline;overflow:visible;visibility:visible;opacity:1;isolation:auto;mix-blend-mode:normal;color-interpolation:sRGB;color-interpolation-filters:linearRGB;solid-color:#000000;solid-opacity:1;fill:#ccff42;fill-opacity:1;fill-rule:nonzero;stroke:none;stroke-width:0.06401026;stroke-linecap:butt;stroke-linejoin:miter;stroke-miterlimit:4;stroke-dasharray:none;stroke-dashoffset:0;stroke-opacity:1;color-rendering:auto;image-rendering:auto;shape-rendering:auto;text-rendering:auto;enable-background:accumulate"
       id="path448255"
       cx="677.17969"
       cy="602.60248"
       rx="145.38321"
       ry="129.12325" />
    <ellipse
       style="color:#000000;clip-rule:nonzero;display:inline;overflow:visible;visibility:visible;opacity:1;isolation:auto;mix-blend-mode:normal;color-interpolation:sRGB;color-interpolation-filters:linearRGB;solid-color:#000000;solid-opacity:1;fill:#f1caff;fill-opacity:1;fill-rule:nonzero;stroke:none;stroke-width:0.06401026;stroke-linecap:butt;stroke-linejoin:miter;stroke-miterlimit:4;stroke-dasharray:none;stroke-dashoffset:0;stroke-opacity:1;color-rendering:auto;image-rendering:auto;shape-rendering:auto;text-rendering:auto;enable-background:accumulate"
       id="path448253"
       cx="168.33844"
       cy="603.5589"
       rx="137.73146"
       ry="120.51501" />
    <use
       id="use446761"
       style="fill:#000000;stroke:none"
       xlink:href="#icon-truck"
       transform="matrix(-0.07379154,0,0,0.07379154,483.27615,759.21017)"
       x="0"
       y="0"
       width="100%"
       height="100%" />
    <use
       id="use447732"
       style="fill:#000000;stroke:none"
       xlink:href="#icon-file-text-o"
       transform="matrix(0.07532138,0,0,0.07532138,640.90007,518.16667)"
       x="0"
       y="0"
       width="100%"
       height="100%" />
    <use
       height="100%"
       width="100%"
       y="0"
       x="0"
       transform="matrix(0.07532138,0,0,0.07532138,699.06405,562.80414)"
       xlink:href="#icon-file-text-o"
       style="fill:#000000;stroke:none"
       id="use447746" />
    <use
       id="use447748"
       style="fill:#000000;stroke:none"
       xlink:href="#icon-file-text-o"
       transform="matrix(0.07532138,0,0,0.07532138,711.23791,501.93486)"
       x="0"
       y="0"
       width="100%"
       height="100%" />
    <use
       id="use447774"
       style="fill:#000000;stroke:none"
       xlink:href="#icon-industry"
       transform="matrix(0.11120151,0,0,0.11120151,277.21913,728.70694)"
       x="0"
       y="0"
       width="100%"
       height="100%" />
    <use
       id="use447812"
       style="color:#000000;clip-rule:nonzero;display:inline;overflow:visible;visibility:visible;opacity:1;isolation:auto;mix-blend-mode:normal;color-interpolation:sRGB;color-interpolation-filters:linearRGB;solid-color:#000000;solid-opacity:1;fill:#000000;fill-opacity:1;fill-rule:nonzero;stroke:none;stroke-width:0.73887199;stroke-linecap:butt;stroke-linejoin:miter;stroke-miterlimit:4;stroke-dasharray:none;stroke-dashoffset:0;stroke-opacity:1;color-rendering:auto;image-rendering:auto;shape-rendering:auto;text-rendering:auto;enable-background:accumulate"
       xlink:href="#icon-cc-visa"
       transform="matrix(0.06401025,0,0,0.06401026,128.405,533.06018)"
       x="0"
       y="0"
       width="100%"
       height="100%" />
    <use
       id="use447850"
       style="fill:#000000;stroke:none"
       xlink:href="#icon-cc-paypal"
       transform="matrix(0.06401026,0,0,0.06401026,178.45311,585.36265)"
       x="0"
       y="0"
       width="100%"
       height="100%" />
    <use
       id="use447967"
       style="fill:#000000;stroke:none"
       xlink:href="#icon-bar-chart"
       transform="matrix(0.11895674,0,0,0.11895674,564.55744,595.88632)"
       x="0"
       y="0"
       width="100%"
       height="100%" />
    <use
       id="use448005"
       style="fill:#000000;stroke:none"
       xlink:href="#icon-credit-card"
       transform="matrix(0.07681231,0,0,0.06401026,95.401329,598.87346)"
       x="0"
       y="0"
       width="100%"
       height="100%" />
    <use
       id="use448057"
       style="fill:#000000;stroke:none"
       xlink:href="#icon-twitter-square"
       transform="matrix(0.11820698,0,0,0.11820698,892.35723,754.69993)"
       x="0"
       y="0"
       width="100%"
       height="100%" />
    <use
       id="use448082"
       style="fill:#000000;stroke:none"
       xlink:href="#icon-facebook-square"
       transform="matrix(0.11820206,0,0,0.11820698,805.33142,698.27022)"
       x="0"
       y="0"
       width="100%"
       height="100%" />
    <use
       id="use448120"
       style="fill:#000000;stroke:none"
       xlink:href="#icon-bitcoin"
       transform="matrix(0.0803415,0,0,0.0803415,155.25664,637.03659)"
       x="0"
       y="0"
       width="100%"
       height="100%" />
    <use
       id="use448145"
       style="fill:#000000;stroke:none"
       xlink:href="#icon-eur"
       transform="matrix(0.07969845,0,0,0.07969845,178.40033,504.54769)"
       x="0"
       y="0"
       width="100%"
       height="100%" />
    <use
       id="use448170"
       style="fill:#000000;stroke:none"
       xlink:href="#icon-dollar"
       transform="matrix(0.07578183,0,0,0.07578183,54.817987,526.02955)"
       x="0"
       y="0"
       width="100%"
       height="100%" />
    <use
       id="use448209"
       style="fill:#000000;stroke:none"
       xlink:href="#icon-google-plus-circle"
       transform="matrix(0.11820699,0,0,0.11820698,890.44429,666.70481)"
       x="0"
       y="0"
       width="100%"
       height="100%" />
    <use
       id="use448272"
       style="fill:#000000;stroke:none"
       xlink:href="#icon-home"
       transform="matrix(0.10126638,0,0,0.10126638,489.47791,745.44709)"
       x="0"
       y="0"
       width="100%"
       height="100%" />
    <rect
       style="color:#000000;clip-rule:nonzero;display:inline;overflow:visible;visibility:visible;opacity:1;isolation:auto;mix-blend-mode:normal;color-interpolation:sRGB;color-interpolation-filters:linearRGB;solid-color:#000000;solid-opacity:1;fill:#0e232e;fill-opacity:1;fill-rule:nonzero;stroke:none;stroke-width:0.06401026;stroke-linecap:butt;stroke-linejoin:miter;stroke-miterlimit:4;stroke-dasharray:none;stroke-dashoffset:0;stroke-opacity:1;color-rendering:auto;image-rendering:auto;shape-rendering:auto;text-rendering:auto;enable-background:accumulate"
       id="rect448286"
       width="307.98285"
       height="5.7388105"
       x="288.85349"
       y="810.15613" />
    <rect
       style="color:#000000;clip-rule:nonzero;display:inline;overflow:visible;visibility:visible;opacity:1;isolation:auto;mix-blend-mode:normal;color-interpolation:sRGB;color-interpolation-filters:linearRGB;solid-color:#000000;solid-opacity:1;fill:#0e232e;fill-opacity:1;fill-rule:nonzero;stroke:none;stroke-width:0.02196547;stroke-linecap:butt;stroke-linejoin:miter;stroke-miterlimit:4;stroke-dasharray:none;stroke-dashoffset:0;stroke-opacity:1;color-rendering:auto;image-rendering:auto;shape-rendering:auto;text-rendering:auto;enable-background:accumulate"
       id="rect448288"
       width="1153.0228"
       height="8.4886589"
       x="-52.127529"
       y="948.03931" />
    <rect
       y="1006.1643"
       x="-52.127529"
       height="8.4886589"
       width="1153.0228"
       id="rect4079"
       style="color:#000000;clip-rule:nonzero;display:inline;overflow:visible;visibility:visible;opacity:1;isolation:auto;mix-blend-mode:normal;color-interpolation:sRGB;color-interpolation-filters:linearRGB;solid-color:#000000;solid-opacity:1;fill:#0e232e;fill-opacity:1;fill-rule:nonzero;stroke:none;stroke-width:0.02196547;stroke-linecap:butt;stroke-linejoin:miter;stroke-miterlimit:4;stroke-dasharray:none;stroke-dashoffset:0;stroke-opacity:1;color-rendering:auto;image-rendering:auto;shape-rendering:auto;text-rendering:auto;enable-background:accumulate" />
    <circle
       id="path4081-3"
       cx="-430.4108"
       cy="765.42169"
       r="21.52054"
       style="fill:#8b008f;fill-opacity:0.94117647;stroke-width:0.9375" />
    <circle
       style="fill:#5f9ea0;fill-opacity:1;stroke-width:0.9375"
       r="21.52054"
       cy="896.33832"
       cx="-532.63336"
       id="circle4909" />
    <circle
       style="fill:#ff8c00;fill-opacity:1;stroke-width:0.9375"
       r="21.52054"
       cy="1007.5278"
       cx="-609.7486"
       id="circle4911" />
    <circle
       style="fill:#8b008f;fill-opacity:0.94117647;stroke-width:0.9375"
       r="21.52054"
       cy="765.42169"
       cx="-430.4108"
       id="circle4913" />
    <circle
       id="circle4915"
       cx="-430.4108"
       cy="765.42169"
       r="21.52054"
       style="fill:#8b008f;fill-opacity:0.94117647;stroke-width:0.9375" />
    <circle
       id="circle4923"
       cx="-532.63336"
       cy="896.33832"
       r="21.52054"
       style="fill:#5f9ea0;fill-opacity:1;stroke-width:0.9375" />
    <circle
       id="circle4933"
       cx="-609.7486"
       cy="1007.5278"
       r="21.52054"
       style="fill:#ff8c00;fill-opacity:1;stroke-width:0.9375" />
    <g
       id="g4991"
       transform="translate(0,-1.9710302)">
      <circle
         style="fill:#ff8c00;fill-opacity:1;stroke-width:0.9375"
         r="21.52054"
         cy="983.3172"
         cx="51.833469"
         id="path4081" />
      <circle
         id="circle4917"
         cx="637.96375"
         cy="983.3172"
         r="21.52054"
         style="fill:#8b008f;fill-opacity:0.94117647;stroke-width:0.9375" />
      <circle
         style="fill:#8b008f;fill-opacity:0.94117647;stroke-width:0.9375"
         r="21.52054"
         cy="983.3172"
         cx="457.61597"
         id="circle4919" />
      <circle
         id="circle4921"
         cx="277.26819"
         cy="983.3172"
         r="21.52054"
         style="fill:#8b008f;fill-opacity:0.94117647;stroke-width:0.9375" />
      <circle
         id="circle4925"
         cx="367.44208"
         cy="983.3172"
         r="21.52054"
         style="fill:#5f9ea0;fill-opacity:1;stroke-width:0.9375" />
      <circle
         style="fill:#5f9ea0;fill-opacity:1;stroke-width:0.9375"
         r="21.52054"
         cy="983.3172"
         cx="908.48541"
         id="circle4927" />
      <circle
         id="circle4929"
         cx="998.6593"
         cy="983.3172"
         r="21.52054"
         style="fill:#5f9ea0;fill-opacity:1;stroke-width:0.9375" />
      <circle
         style="fill:#5f9ea0;fill-opacity:1;stroke-width:0.9375"
         r="21.52054"
         cy="983.3172"
         cx="187.0943"
         id="circle4931" />
      <circle
         id="circle4935"
         cx="547.78986"
         cy="983.3172"
         r="21.52054"
         style="fill:#ff8c00;fill-opacity:1;stroke-width:0.9375" />
      <circle
         style="fill:#ff8c00;fill-opacity:1;stroke-width:0.9375"
         r="21.52054"
         cy="983.3172"
         cx="728.1377"
         id="circle4937" />
      <circle
         id="circle4939"
         cx="818.31152"
         cy="983.3172"
         r="21.52054"
         style="fill:#ff8c00;fill-opacity:1;stroke-width:0.9375" />
      <circle
         transform="scale(-1,1)"
         id="circle4941"
         cx="-1043.7462"
         cy="983.31714"
         r="21.52054"
         style="fill:#ff8c00;fill-opacity:1;stroke-width:0.9375" />
      <circle
         transform="scale(-1,1)"
         style="fill:#8b008f;fill-opacity:0.94117647;stroke-width:0.9375"
         r="21.52054"
         cy="983.31714"
         cx="-502.70291"
         id="circle4943" />
      <circle
         transform="scale(-1,1)"
         id="circle4945"
         cx="-683.05072"
         cy="983.31714"
         r="21.52054"
         style="fill:#8b008f;fill-opacity:0.94117647;stroke-width:0.9375" />
      <circle
         transform="scale(-1,1)"
         style="fill:#8b008f;fill-opacity:0.94117647;stroke-width:0.9375"
         r="21.52054"
         cy="983.31714"
         cx="-863.39844"
         id="circle4947" />
      <circle
         transform="scale(-1,1)"
         style="fill:#5f9ea0;fill-opacity:1;stroke-width:0.9375"
         r="21.52054"
         cy="983.31714"
         cx="-773.22461"
         id="circle4949" />
      <circle
         transform="scale(-1,1)"
         id="circle4951"
         cx="-232.18126"
         cy="983.31714"
         r="21.52054"
         style="fill:#5f9ea0;fill-opacity:1;stroke-width:0.9375" />
      <circle
         transform="scale(-1,1)"
         style="fill:#5f9ea0;fill-opacity:1;stroke-width:0.9375"
         r="21.52054"
         cy="983.31714"
         cx="-142.00735"
         id="circle4953" />
      <circle
         transform="scale(-1,1)"
         id="circle4955"
         cx="-953.57245"
         cy="983.31714"
         r="21.52054"
         style="fill:#5f9ea0;fill-opacity:1;stroke-width:0.9375" />
      <circle
         transform="scale(-1,1)"
         style="fill:#ff8c00;fill-opacity:1;stroke-width:0.9375"
         r="21.52054"
         cy="983.31714"
         cx="-592.87683"
         id="circle4957" />
      <circle
         transform="scale(-1,1)"
         id="circle4959"
         cx="-412.52905"
         cy="983.31714"
         r="21.52054"
         style="fill:#ff8c00;fill-opacity:1;stroke-width:0.9375" />
      <circle
         transform="scale(-1,1)"
         style="fill:#ff8c00;fill-opacity:1;stroke-width:0.9375"
         r="21.52054"
         cy="983.31714"
         cx="-322.35513"
         id="circle4961" />
      <circle
         id="circle4963"
         cx="-96.920418"
         cy="983.31714"
         r="21.52054"
         style="fill:#5f9ea0;fill-opacity:1;stroke-width:0.9375"
         transform="scale(-1,1)" />
      <circle
         style="fill:#8b008f;fill-opacity:0.94117647;stroke-width:0.9375"
         r="21.52054"
         cy="983.3172"
         cx="6.7465243"
         id="circle4965" />
    </g>
    <path
       style="fill:none;stroke:#000000;stroke-width:9.37499986;stroke-linecap:butt;stroke-linejoin:miter;stroke-opacity:1;stroke-miterlimit:4;stroke-dasharray:9.37499986,9.37499986;stroke-dashoffset:0"
       d="M 163.19743,724.17399 V 951.93304"
       id="path4995"
       inkscape:connector-curvature="0" />
    <path
       style="fill:none;stroke:#000000;stroke-width:9.37499986;stroke-linecap:butt;stroke-linejoin:miter;stroke-opacity:1;stroke-miterlimit:4;stroke-dasharray:9.37499986,9.37499986;stroke-dashoffset:0"
       d="m 428.61742,873.0244 v 78.90864"
       id="path4997"
       inkscape:connector-curvature="0" />
  </g>
</svg>
