<?xml version="1.0" encoding="UTF-8" standalone="no"?>
<!-- Created with Inkscape (http://www.inkscape.org/) -->

<svg
   xmlns:dc="http://purl.org/dc/elements/1.1/"
   xmlns:cc="http://creativecommons.org/ns#"
   xmlns:rdf="http://www.w3.org/1999/02/22-rdf-syntax-ns#"
   xmlns:svg="http://www.w3.org/2000/svg"
   xmlns="http://www.w3.org/2000/svg"
   xmlns:xlink="http://www.w3.org/1999/xlink"
   xmlns:sodipodi="http://sodipodi.sourceforge.net/DTD/sodipodi-0.dtd"
   xmlns:inkscape="http://www.inkscape.org/namespaces/inkscape"
   width="297mm"
   height="210mm"
   viewBox="0 0 1052.3622 744.09448"
   id="svg2"
   version="1.1"
   inkscape:version="0.91 r13725"
   sodipodi:docname="complexity.svg">
  <defs
     id="defs4">
    <marker
       inkscape:stockid="Arrow1Lstart"
       orient="auto"
       refY="0.0"
       refX="0.0"
       id="Arrow1Lstart"
       style="overflow:visible"
       inkscape:isstock="true">
      <path
         id="path448296"
         d="M 0.0,0.0 L 5.0,-5.0 L -12.5,0.0 L 5.0,5.0 L 0.0,0.0 z "
         style="fill-rule:evenodd;stroke:#000000;stroke-width:1pt;stroke-opacity:1;fill:#000000;fill-opacity:1"
         transform="scale(0.8) translate(12.5,0)" />
    </marker>
    <symbol
       id="icon-truck"
       viewBox="0 0 29 28">
      <title
         id="title68596">truck</title>
      <path
         d="M10 22c0-1.094-0.906-2-2-2s-2 0.906-2 2 0.906 2 2 2 2-0.906 2-2zM4 14h6v-4h-2.469c-0.063 0-0.297 0.094-0.344 0.141l-3.047 3.047c-0.047 0.047-0.141 0.281-0.141 0.344v0.469zM24 22c0-1.094-0.906-2-2-2s-2 0.906-2 2 0.906 2 2 2 2-0.906 2-2zM28 5v16c0 1.156-1.219 1-2 1 0 2.203-1.797 4-4 4s-4-1.797-4-4h-6c0 2.203-1.797 4-4 4s-4-1.797-4-4h-1c-0.781 0-2 0.156-2-1 0-0.547 0.453-1 1-1v-5c0-1.109-0.156-2.344 0.703-3.203l3.094-3.094c0.391-0.391 1.141-0.703 1.703-0.703h2.5v-3c0-0.547 0.453-1 1-1h16c0.547 0 1 0.453 1 1z"
         id="path68598" />
    </symbol>
    <symbol
       id="icon-file-o"
       viewBox="0 0 24 28">
      <title
         id="title67796">file-o</title>
      <path
         d="M22.937 5.938c0.578 0.578 1.062 1.734 1.062 2.562v18c0 0.828-0.672 1.5-1.5 1.5h-21c-0.828 0-1.5-0.672-1.5-1.5v-25c0-0.828 0.672-1.5 1.5-1.5h14c0.828 0 1.984 0.484 2.562 1.062zM16 2.125v5.875h5.875c-0.094-0.266-0.234-0.531-0.344-0.641l-4.891-4.891c-0.109-0.109-0.375-0.25-0.641-0.344zM22 26v-16h-6.5c-0.828 0-1.5-0.672-1.5-1.5v-6.5h-12v24h20z"
         id="path67798" />
    </symbol>
    <symbol
       id="icon-file-text-o"
       viewBox="0 0 24 28">
      <title
         id="title68771">file-text-o</title>
      <path
         d="M22.937 5.938c0.578 0.578 1.062 1.734 1.062 2.562v18c0 0.828-0.672 1.5-1.5 1.5h-21c-0.828 0-1.5-0.672-1.5-1.5v-25c0-0.828 0.672-1.5 1.5-1.5h14c0.828 0 1.984 0.484 2.562 1.062zM16 2.125v5.875h5.875c-0.094-0.266-0.234-0.531-0.344-0.641l-4.891-4.891c-0.109-0.109-0.375-0.25-0.641-0.344zM22 26v-16h-6.5c-0.828 0-1.5-0.672-1.5-1.5v-6.5h-12v24h20zM6 12.5c0-0.281 0.219-0.5 0.5-0.5h11c0.281 0 0.5 0.219 0.5 0.5v1c0 0.281-0.219 0.5-0.5 0.5h-11c-0.281 0-0.5-0.219-0.5-0.5v-1zM17.5 16c0.281 0 0.5 0.219 0.5 0.5v1c0 0.281-0.219 0.5-0.5 0.5h-11c-0.281 0-0.5-0.219-0.5-0.5v-1c0-0.281 0.219-0.5 0.5-0.5h11zM17.5 20c0.281 0 0.5 0.219 0.5 0.5v1c0 0.281-0.219 0.5-0.5 0.5h-11c-0.281 0-0.5-0.219-0.5-0.5v-1c0-0.281 0.219-0.5 0.5-0.5h11z"
         id="path68773" />
    </symbol>
    <symbol
       id="icon-industry"
       viewBox="0 0 28 28">
      <title
         id="title70541">industry</title>
      <path
         d="M7 0c0.547 0 1 0.453 1 1v13.922l8.375-6.703c0.172-0.141 0.406-0.219 0.625-0.219 0.547 0 1 0.453 1 1v5.922l8.375-6.703c0.172-0.141 0.406-0.219 0.625-0.219 0.547 0 1 0.453 1 1v18c0 0.547-0.453 1-1 1h-26c-0.547 0-1-0.453-1-1v-26c0-0.547 0.453-1 1-1h6z"
         id="path70543" />
    </symbol>
    <symbol
       id="icon-cc-visa"
       viewBox="0 0 36 28">
      <title
         id="title69926">cc-visa</title>
      <path
         d="M30.859 15.469h-2.156c0 0 0.219-0.578 1.031-2.797-0.016 0.016 0.219-0.578 0.344-0.953l0.187 0.859c0.484 2.391 0.594 2.891 0.594 2.891zM8.297 14.453l-0.906-4.609c-0.125-0.641-0.609-0.844-1.172-0.844h-4.188l-0.031 0.203c2.875 0.734 5.234 2.297 6.297 5.25zM11.094 9l-2.531 6.844-0.266-1.391c-0.547-1.453-1.875-2.797-3.375-3.406l2.109 7.969h2.734l4.078-10.016h-2.75zM13.266 19.031h2.594l1.625-10.031h-2.594zM25.266 9.25c-0.516-0.203-1.328-0.422-2.328-0.422-2.562 0-4.359 1.359-4.375 3.313-0.016 1.437 1.281 2.234 2.266 2.719 1.016 0.484 1.344 0.812 1.344 1.25 0 0.672-0.812 0.969-1.547 0.969-1.047 0-1.609-0.125-2.438-0.516l-0.344-0.172-0.359 2.25c0.609 0.281 1.719 0.531 2.891 0.531 2.719 0.016 4.484-1.344 4.516-3.422 0-1.141-0.703-2-2.188-2.719-0.906-0.453-1.453-0.781-1.453-1.25 0-0.422 0.469-0.859 1.484-0.859 0.844-0.016 1.469 0.156 1.937 0.375l0.234 0.125zM31.906 9h-2c-0.625 0-1.094 0.187-1.359 0.844l-3.844 9.188h2.719c0.438-1.234 0.547-1.5 0.547-1.5h3.313c0 0 0.078 0.344 0.313 1.5h2.406zM36 4v20c0 1.094-0.906 2-2 2h-32c-1.094 0-2-0.906-2-2v-20c0-1.094 0.906-2 2-2h32c1.094 0 2 0.906 2 2z"
         id="path69928" />
    </symbol>
    <symbol
       id="icon-cc-paypal"
       viewBox="0 0 36 28">
      <title
         id="title69946">cc-paypal</title>
      <path
         d="M11.641 14.156c0 0.766-0.609 1.344-1.375 1.344-0.578 0-1-0.328-1-0.938 0-0.766 0.594-1.375 1.359-1.375 0.578 0 1.016 0.359 1.016 0.969zM23.906 11.828c0 0.938-0.562 1.125-1.375 1.125l-0.5 0.016 0.266-1.672c0.016-0.109 0.094-0.172 0.203-0.172h0.281c0.531 0 1.125 0.031 1.125 0.703zM29.391 14.156c0 0.766-0.609 1.344-1.359 1.344-0.578 0-1.016-0.328-1.016-0.938 0-0.766 0.594-1.375 1.359-1.375 0.578 0 1.016 0.359 1.016 0.969zM8.016 11.484c0-1.313-1.016-1.75-2.172-1.75h-2.5c-0.156 0-0.313 0.125-0.328 0.297l-1.016 6.375c-0.016 0.125 0.078 0.25 0.203 0.25h1.188c0.172 0 0.328-0.125 0.344-0.297l0.281-1.719c0.063-0.453 0.828-0.297 1.125-0.297 1.781 0 2.875-1.062 2.875-2.859zM12.844 16.359l0.641-4.078c0.016-0.125-0.078-0.25-0.203-0.25h-1.188c-0.234 0-0.25 0.344-0.266 0.516-0.359-0.531-0.891-0.625-1.484-0.625-1.531 0-2.703 1.344-2.703 2.828 0 1.219 0.766 2.016 1.984 2.016 0.562 0 1.266-0.25 1.656-0.688-0.031 0.094-0.063 0.234-0.063 0.328 0 0.141 0.063 0.25 0.203 0.25h1.078c0.172 0 0.313-0.125 0.344-0.297zM19.828 12.25c0-0.109-0.094-0.219-0.203-0.219h-1.203c-0.109 0-0.219 0.063-0.281 0.156l-1.656 2.438-0.688-2.344c-0.047-0.141-0.187-0.25-0.344-0.25h-1.172c-0.109 0-0.203 0.109-0.203 0.219 0 0.078 1.219 3.609 1.328 3.938-0.172 0.234-1.281 1.687-1.281 1.875 0 0.109 0.094 0.203 0.203 0.203h1.203c0.109 0 0.219-0.063 0.281-0.156l3.984-5.75c0.031-0.031 0.031-0.063 0.031-0.109zM25.766 11.484c0-1.313-1.016-1.75-2.172-1.75h-2.484c-0.172 0-0.328 0.125-0.344 0.297l-1.016 6.375c-0.016 0.125 0.078 0.25 0.203 0.25h1.281c0.125 0 0.219-0.094 0.25-0.203l0.281-1.813c0.063-0.453 0.828-0.297 1.125-0.297 1.781 0 2.875-1.062 2.875-2.859zM30.594 16.359l0.641-4.078c0.016-0.125-0.078-0.25-0.203-0.25h-1.188c-0.234 0-0.25 0.344-0.266 0.516-0.344-0.531-0.875-0.625-1.484-0.625-1.531 0-2.703 1.344-2.703 2.828 0 1.219 0.766 2.016 1.984 2.016 0.578 0 1.281-0.25 1.656-0.688-0.016 0.094-0.063 0.234-0.063 0.328 0 0.141 0.063 0.25 0.203 0.25h1.078c0.172 0 0.313-0.125 0.344-0.297zM34 9.969v-0.016c0-0.125-0.094-0.219-0.203-0.219h-1.156c-0.094 0-0.187 0.078-0.203 0.172l-1.016 6.5-0.016 0.031c0 0.109 0.094 0.219 0.219 0.219h1.031c0.156 0 0.313-0.125 0.328-0.297zM6.125 12.063c-0.125 0.797-0.656 0.891-1.344 0.891l-0.516 0.016 0.266-1.672c0.016-0.109 0.109-0.172 0.203-0.172h0.297c0.703 0 1.234 0.094 1.094 0.938zM36 4v20c0 1.094-0.906 2-2 2h-32c-1.094 0-2-0.906-2-2v-20c0-1.094 0.906-2 2-2h32c1.094 0 2 0.906 2 2z"
         id="path69948" />
    </symbol>
    <symbol
       id="icon-gift"
       viewBox="0 0 24 28">
      <title
         id="title68181">gift</title>
      <path
         d="M14.5 21.187v-11.188h-5v11.188c0 0.547 0.453 0.812 1 0.812h3c0.547 0 1-0.266 1-0.812zM7.375 8h3.047l-1.969-2.516c-0.172-0.203-0.547-0.484-1.078-0.484-0.828 0-1.5 0.672-1.5 1.5s0.672 1.5 1.5 1.5zM18.125 6.5c0-0.828-0.672-1.5-1.5-1.5-0.531 0-0.906 0.281-1.078 0.484l-1.953 2.516h3.031c0.828 0 1.5-0.672 1.5-1.5zM24 10.5v5c0 0.281-0.219 0.5-0.5 0.5h-1.5v6.5c0 0.828-0.672 1.5-1.5 1.5h-17c-0.828 0-1.5-0.672-1.5-1.5v-6.5h-1.5c-0.281 0-0.5-0.219-0.5-0.5v-5c0-0.281 0.219-0.5 0.5-0.5h6.875c-1.937 0-3.5-1.563-3.5-3.5s1.563-3.5 3.5-3.5c1.047 0 2.016 0.438 2.625 1.203l2 2.578 2-2.578c0.609-0.766 1.578-1.203 2.625-1.203 1.937 0 3.5 1.563 3.5 3.5s-1.563 3.5-3.5 3.5h6.875c0.281 0 0.5 0.219 0.5 0.5z"
         id="path68183" />
    </symbol>
    <symbol
       id="icon-bar-chart"
       viewBox="0 0 32 28">
      <title
         id="title68276">bar-chart</title>
      <path
         d="M10 14v8h-4v-8h4zM16 6v16h-4v-16h4zM32 24v2h-32v-24h2v22h30zM22 10v12h-4v-12h4zM28 4v18h-4v-18h4z"
         id="path68278" />
    </symbol>
    <symbol
       id="icon-credit-card"
       viewBox="0 0 30 28">
      <title
         id="title68416">credit-card</title>
      <path
         d="M27.5 2c1.375 0 2.5 1.125 2.5 2.5v19c0 1.375-1.125 2.5-2.5 2.5h-25c-1.375 0-2.5-1.125-2.5-2.5v-19c0-1.375 1.125-2.5 2.5-2.5h25zM2.5 4c-0.266 0-0.5 0.234-0.5 0.5v3.5h26v-3.5c0-0.266-0.234-0.5-0.5-0.5h-25zM27.5 24c0.266 0 0.5-0.234 0.5-0.5v-9.5h-26v9.5c0 0.266 0.234 0.5 0.5 0.5h25zM4 22v-2h4v2h-4zM10 22v-2h6v2h-6z"
         id="path68418" />
    </symbol>
    <symbol
       id="icon-twitter-square"
       viewBox="0 0 24 28">
      <title
         id="title68281">twitter-square</title>
      <path
         d="M20 9.531c-0.594 0.266-1.219 0.438-1.891 0.531 0.688-0.406 1.203-1.062 1.453-1.828-0.641 0.375-1.344 0.656-2.094 0.797-0.594-0.641-1.453-1.031-2.391-1.031-1.813 0-3.281 1.469-3.281 3.281 0 0.25 0.016 0.516 0.078 0.75-2.734-0.141-5.156-1.437-6.781-3.437-0.281 0.484-0.453 1.062-0.453 1.656 0 1.141 0.531 2.141 1.422 2.734-0.547-0.016-1.062-0.172-1.563-0.406v0.031c0 1.594 1.203 2.922 2.703 3.219-0.281 0.078-0.5 0.125-0.797 0.125-0.203 0-0.406-0.031-0.609-0.063 0.422 1.297 1.625 2.25 3.063 2.281-1.125 0.875-2.531 1.406-4.078 1.406-0.266 0-0.531-0.016-0.781-0.047 1.453 0.922 3.172 1.469 5.031 1.469 6.031 0 9.344-5 9.344-9.344 0-0.141 0-0.281-0.016-0.422 0.641-0.453 1.203-1.031 1.641-1.703zM24 6.5v15c0 2.484-2.016 4.5-4.5 4.5h-15c-2.484 0-4.5-2.016-4.5-4.5v-15c0-2.484 2.016-4.5 4.5-4.5h15c2.484 0 4.5 2.016 4.5 4.5z"
         id="path68283" />
    </symbol>
    <symbol
       id="icon-facebook-square"
       viewBox="0 0 24 28">
      <title
         id="title68286">facebook-square</title>
      <path
         d="M19.5 2c2.484 0 4.5 2.016 4.5 4.5v15c0 2.484-2.016 4.5-4.5 4.5h-2.938v-9.297h3.109l0.469-3.625h-3.578v-2.312c0-1.047 0.281-1.75 1.797-1.75l1.906-0.016v-3.234c-0.328-0.047-1.469-0.141-2.781-0.141-2.766 0-4.672 1.687-4.672 4.781v2.672h-3.125v3.625h3.125v9.297h-8.313c-2.484 0-4.5-2.016-4.5-4.5v-15c0-2.484 2.016-4.5 4.5-4.5h15z"
         id="path68288" />
    </symbol>
    <symbol
       id="icon-bitcoin"
       viewBox="0 0 21 28">
      <title
         id="title69226">bitcoin</title>
      <path
         d="M18.234 10c0.203 2.078-0.672 3.328-2.047 4.031 2.281 0.547 3.719 1.906 3.437 4.953-0.359 3.797-3.172 4.813-7.203 5.031v3.984h-2.406v-3.922c-0.609 0-1.25 0-1.906-0.016v3.938h-2.406v-3.984c-0.562 0-1.125-0.016-1.703-0.016h-3.125l0.484-2.859c1.766 0.031 1.734 0 1.734 0 0.672 0 0.859-0.484 0.906-0.797v-6.281h0.25c-0.094-0.016-0.187-0.016-0.25-0.016v-4.484c-0.094-0.5-0.406-1.062-1.391-1.062 0 0 0.031-0.031-1.734 0v-2.562l3.313 0.016c0.484 0 1 0 1.516-0.016v-3.938h2.406v3.859c0.641-0.016 1.281-0.031 1.906-0.031v-3.828h2.406v3.938c3.094 0.266 5.547 1.219 5.812 4.062zM14.875 18.516c0-3.094-5.094-2.641-6.719-2.641v5.281c1.625 0 6.719 0.344 6.719-2.641zM13.766 11.078c0-2.828-4.25-2.406-5.609-2.406v4.797c1.359 0 5.609 0.313 5.609-2.391z"
         id="path69228" />
    </symbol>
    <symbol
       id="icon-eur"
       viewBox="0 0 16 28">
      <title
         id="title69191">eur</title>
      <path
         d="M15.25 20.422l0.547 2.484c0.063 0.25-0.078 0.5-0.313 0.578-0.063 0.016-1.516 0.516-3.391 0.516-4.875 0-8.797-2.938-10.109-7.531h-1.484c-0.281 0-0.5-0.234-0.5-0.5v-1.766c0-0.266 0.219-0.5 0.5-0.5h1.031c-0.016-0.5-0.016-1.094 0.016-1.641h-1.047c-0.281 0-0.5-0.219-0.5-0.5v-1.781c0-0.281 0.219-0.5 0.5-0.5h1.531c1.391-4.375 5.391-7.281 10.063-7.281 1.625 0 2.969 0.344 3.031 0.359 0.125 0.031 0.234 0.125 0.313 0.234 0.063 0.109 0.078 0.25 0.047 0.375l-0.672 2.484c-0.063 0.266-0.328 0.422-0.594 0.344-0.016 0-1.078-0.266-2.188-0.266-2.625 0-4.828 1.422-5.875 3.75h7.313c0.156 0 0.297 0.063 0.391 0.187 0.094 0.109 0.141 0.266 0.109 0.406l-0.375 1.781c-0.047 0.234-0.25 0.406-0.5 0.406h-7.625c-0.047 0.5-0.031 1.031 0 1.641h7.172c0.156 0 0.297 0.078 0.391 0.187 0.094 0.125 0.125 0.281 0.094 0.422l-0.375 1.75c-0.047 0.234-0.25 0.406-0.484 0.406h-6.047c1 2.438 3.25 3.969 5.906 3.969 1.359 0 2.469-0.375 2.484-0.375 0.125-0.047 0.281-0.031 0.406 0.031 0.125 0.078 0.203 0.203 0.234 0.328z"
         id="path69193" />
    </symbol>
    <symbol
       id="icon-dollar"
       viewBox="0 0 16 28">
      <title
         id="title69201">dollar</title>
      <path
         d="M15.281 18.516c0 3.187-2.281 5.703-5.594 6.25v2.734c0 0.281-0.219 0.5-0.5 0.5h-2.109c-0.266 0-0.5-0.219-0.5-0.5v-2.734c-3.656-0.516-5.656-2.703-5.734-2.797-0.156-0.187-0.172-0.453-0.031-0.641l1.609-2.109c0.078-0.109 0.219-0.172 0.359-0.187s0.281 0.031 0.375 0.141c0.031 0.016 2.219 2.109 4.984 2.109 1.531 0 3.187-0.812 3.187-2.578 0-1.5-1.844-2.234-3.953-3.078-2.812-1.109-6.312-2.516-6.312-6.438 0-2.875 2.25-5.25 5.516-5.875v-2.812c0-0.281 0.234-0.5 0.5-0.5h2.109c0.281 0 0.5 0.219 0.5 0.5v2.75c3.172 0.359 4.859 2.078 4.922 2.141 0.156 0.172 0.187 0.406 0.078 0.594l-1.266 2.281c-0.078 0.141-0.203 0.234-0.359 0.25-0.156 0.031-0.297-0.016-0.422-0.109-0.016-0.016-1.906-1.687-4.25-1.687-1.984 0-3.359 0.984-3.359 2.406 0 1.656 1.906 2.391 4.125 3.25 2.875 1.109 6.125 2.375 6.125 6.141z"
         id="path69203" />
    </symbol>
    <symbol
       id="icon-google-plus-circle"
       viewBox="0 0 24 28">
      <title
         id="title70831">google-plus-circle</title>
      <path
         d="M14.328 14.141c0-0.344-0.031-0.672-0.094-1h-5.656v2.063h3.391c-0.25 1.656-1.813 2.578-3.391 2.578-2.078 0-3.734-1.719-3.734-3.781s1.656-3.781 3.734-3.781c0.875 0 1.75 0.297 2.391 0.922l1.625-1.578c-1.109-1.031-2.5-1.563-4.016-1.563-3.328 0-6 2.688-6 6s2.672 6 6 6c3.453 0 5.75-2.438 5.75-5.859zM19.719 14.859h1.703v-1.719h-1.703v-1.719h-1.719v1.719h-1.719v1.719h1.719v1.719h1.719v-1.719zM24 14c0 6.625-5.375 12-12 12s-12-5.375-12-12 5.375-12 12-12 12 5.375 12 12z"
         id="path70833" />
    </symbol>
    <symbol
       id="icon-home"
       viewBox="0 0 26 28">
      <title
         id="title67791">home</title>
      <path
         d="M22 15.5v7.5c0 0.547-0.453 1-1 1h-6v-6h-4v6h-6c-0.547 0-1-0.453-1-1v-7.5c0-0.031 0.016-0.063 0.016-0.094l8.984-7.406 8.984 7.406c0.016 0.031 0.016 0.063 0.016 0.094zM25.484 14.422l-0.969 1.156c-0.078 0.094-0.203 0.156-0.328 0.172h-0.047c-0.125 0-0.234-0.031-0.328-0.109l-10.813-9.016-10.813 9.016c-0.109 0.078-0.234 0.125-0.375 0.109-0.125-0.016-0.25-0.078-0.328-0.172l-0.969-1.156c-0.172-0.203-0.141-0.531 0.063-0.703l11.234-9.359c0.656-0.547 1.719-0.547 2.375 0l3.813 3.187v-3.047c0-0.281 0.219-0.5 0.5-0.5h3c0.281 0 0.5 0.219 0.5 0.5v6.375l3.422 2.844c0.203 0.172 0.234 0.5 0.063 0.703z"
         id="path67793" />
    </symbol>
    <symbol
       id="UpArrow">
      <title
         id="title5498">Up Arrow</title>
      <path
         d="M 36,9 58,31 58,46 42,30 42,62 30,62 30,30 14,46 14,31 z"
         style="stroke:none"
         id="path5500" />
    </symbol>
  </defs>
  <sodipodi:namedview
     id="base"
     pagecolor="#ffffff"
     bordercolor="#666666"
     borderopacity="1.0"
     inkscape:pageopacity="0.0"
     inkscape:pageshadow="2"
     inkscape:zoom="0.5227564"
     inkscape:cx="516.62608"
     inkscape:cy="246.03056"
     inkscape:document-units="px"
     inkscape:current-layer="layer1"
     showgrid="false"
     inkscape:window-width="1680"
     inkscape:window-height="960"
     inkscape:window-x="0"
     inkscape:window-y="1"
     inkscape:window-maximized="1" />
  <metadata
     id="metadata7">
    <rdf:RDF>
      <cc:Work
         rdf:about="">
        <dc:format>image/svg+xml</dc:format>
        <dc:type
           rdf:resource="http://purl.org/dc/dcmitype/StillImage" />
        <dc:title></dc:title>
      </cc:Work>
    </rdf:RDF>
  </metadata>
  <g
     inkscape:label="Layer 1"
     inkscape:groupmode="layer"
     id="layer1"
     transform="translate(0,-308.26772)">
    <circle
       style="color:#000000;clip-rule:nonzero;display:inline;overflow:visible;visibility:visible;opacity:1;isolation:auto;mix-blend-mode:normal;color-interpolation:sRGB;color-interpolation-filters:linearRGB;solid-color:#000000;solid-opacity:1;fill:#ff4141;fill-opacity:1;fill-rule:nonzero;stroke:none;stroke-width:0.06401026;stroke-linecap:butt;stroke-linejoin:miter;stroke-miterlimit:4;stroke-dasharray:none;stroke-dashoffset:0;stroke-opacity:1;color-rendering:auto;image-rendering:auto;shape-rendering:auto;text-rendering:auto;enable-background:accumulate"
       id="path448259"
       cx="916.29675"
       cy="698.46887"
       r="120.51502" />
    <ellipse
       style="color:#000000;clip-rule:nonzero;display:inline;overflow:visible;visibility:visible;opacity:1;isolation:auto;mix-blend-mode:normal;color-interpolation:sRGB;color-interpolation-filters:linearRGB;solid-color:#000000;solid-opacity:1;fill:#19aeff;fill-opacity:1;fill-rule:nonzero;stroke:none;stroke-width:0.06401026;stroke-linecap:butt;stroke-linejoin:miter;stroke-miterlimit:4;stroke-dasharray:none;stroke-dashoffset:0;stroke-opacity:1;color-rendering:auto;image-rendering:auto;shape-rendering:auto;text-rendering:auto;enable-background:accumulate"
       id="path448257"
       cx="441.88843"
       cy="712.81592"
       rx="170.25139"
       ry="100.42918" />
    <ellipse
       style="color:#000000;clip-rule:nonzero;display:inline;overflow:visible;visibility:visible;opacity:1;isolation:auto;mix-blend-mode:normal;color-interpolation:sRGB;color-interpolation-filters:linearRGB;solid-color:#000000;solid-opacity:1;fill:#ccff42;fill-opacity:1;fill-rule:nonzero;stroke:none;stroke-width:0.06401026;stroke-linecap:butt;stroke-linejoin:miter;stroke-miterlimit:4;stroke-dasharray:none;stroke-dashoffset:0;stroke-opacity:1;color-rendering:auto;image-rendering:auto;shape-rendering:auto;text-rendering:auto;enable-background:accumulate"
       id="path448255"
       cx="677.17969"
       cy="544.47748"
       rx="145.38321"
       ry="129.12325" />
    <ellipse
       style="color:#000000;clip-rule:nonzero;display:inline;overflow:visible;visibility:visible;opacity:1;isolation:auto;mix-blend-mode:normal;color-interpolation:sRGB;color-interpolation-filters:linearRGB;solid-color:#000000;solid-opacity:1;fill:#f1caff;fill-opacity:1;fill-rule:nonzero;stroke:none;stroke-width:0.06401026;stroke-linecap:butt;stroke-linejoin:miter;stroke-miterlimit:4;stroke-dasharray:none;stroke-dashoffset:0;stroke-opacity:1;color-rendering:auto;image-rendering:auto;shape-rendering:auto;text-rendering:auto;enable-background:accumulate"
       id="path448253"
       cx="168.33844"
       cy="545.4339"
       rx="137.73146"
       ry="120.51501" />
    <use
       id="use446761"
       style="fill:#000000;stroke:none"
       xlink:href="#icon-truck"
       transform="matrix(-0.07379154,0,0,0.07379154,483.27615,701.08517)"
       x="0"
       y="0"
       width="100%"
       height="100%" />
    <use
       id="use447732"
       style="fill:#000000;stroke:none"
       xlink:href="#icon-file-text-o"
       transform="matrix(0.07532138,0,0,0.07532138,640.90007,460.04167)"
       x="0"
       y="0"
       width="100%"
       height="100%" />
    <use
       height="100%"
       width="100%"
       y="0"
       x="0"
       transform="matrix(0.07532138,0,0,0.07532138,699.06405,504.67914)"
       xlink:href="#icon-file-text-o"
       style="fill:#000000;stroke:none"
       id="use447746" />
    <use
       id="use447748"
       style="fill:#000000;stroke:none"
       xlink:href="#icon-file-text-o"
       transform="matrix(0.07532138,0,0,0.07532138,711.23791,443.80986)"
       x="0"
       y="0"
       width="100%"
       height="100%" />
    <use
       id="use447774"
       style="fill:#000000;stroke:none"
       xlink:href="#icon-industry"
       transform="matrix(0.11120151,0,0,0.11120151,277.21913,670.58194)"
       x="0"
       y="0"
       width="100%"
       height="100%" />
    <use
       id="use447812"
       style="color:#000000;clip-rule:nonzero;display:inline;overflow:visible;visibility:visible;opacity:1;isolation:auto;mix-blend-mode:normal;color-interpolation:sRGB;color-interpolation-filters:linearRGB;solid-color:#000000;solid-opacity:1;fill:#000000;fill-opacity:1;fill-rule:nonzero;stroke:none;stroke-width:0.73887199;stroke-linecap:butt;stroke-linejoin:miter;stroke-miterlimit:4;stroke-dasharray:none;stroke-dashoffset:0;stroke-opacity:1;color-rendering:auto;image-rendering:auto;shape-rendering:auto;text-rendering:auto;enable-background:accumulate"
       xlink:href="#icon-cc-visa"
       transform="matrix(0.06401025,0,0,0.06401026,128.405,474.93518)"
       x="0"
       y="0"
       width="100%"
       height="100%" />
    <use
       id="use447850"
       style="fill:#000000;stroke:none"
       xlink:href="#icon-cc-paypal"
       transform="matrix(0.06401026,0,0,0.06401026,178.45311,527.23765)"
       x="0"
       y="0"
       width="100%"
       height="100%" />
    <use
       id="use447967"
       style="fill:#000000;stroke:none"
       xlink:href="#icon-bar-chart"
       transform="matrix(0.11895674,0,0,0.11895674,564.55744,537.76132)"
       x="0"
       y="0"
       width="100%"
       height="100%" />
    <use
       id="use448005"
       style="fill:#000000;stroke:none"
       xlink:href="#icon-credit-card"
       transform="matrix(0.07681231,0,0,0.06401026,95.401329,540.74846)"
       x="0"
       y="0"
       width="100%"
       height="100%" />
    <use
       id="use448057"
       style="fill:#000000;stroke:none"
       xlink:href="#icon-twitter-square"
       transform="matrix(0.11820698,0,0,0.11820698,892.35723,696.57493)"
       x="0"
       y="0"
       width="100%"
       height="100%" />
    <use
       id="use448082"
       style="fill:#000000;stroke:none"
       xlink:href="#icon-facebook-square"
       transform="matrix(0.11820206,0,0,0.11820698,805.33142,640.14522)"
       x="0"
       y="0"
       width="100%"
       height="100%" />
    <use
       id="use448120"
       style="fill:#000000;stroke:none"
       xlink:href="#icon-bitcoin"
       transform="matrix(0.0803415,0,0,0.0803415,155.25664,578.91159)"
       x="0"
       y="0"
       width="100%"
       height="100%" />
    <use
       id="use448145"
       style="fill:#000000;stroke:none"
       xlink:href="#icon-eur"
       transform="matrix(0.07969845,0,0,0.07969845,178.40033,446.42269)"
       x="0"
       y="0"
       width="100%"
       height="100%" />
    <use
       id="use448170"
       style="fill:#000000;stroke:none"
       xlink:href="#icon-dollar"
       transform="matrix(0.07578183,0,0,0.07578183,54.817987,467.90455)"
       x="0"
       y="0"
       width="100%"
       height="100%" />
    <use
       id="use448209"
       style="fill:#000000;stroke:none"
       xlink:href="#icon-google-plus-circle"
       transform="matrix(0.11820699,0,0,0.11820698,890.44429,608.57981)"
       x="0"
       y="0"
       width="100%"
       height="100%" />
    <use
       id="use448272"
       style="fill:#000000;stroke:none"
       xlink:href="#icon-home"
       transform="matrix(0.10126638,0,0,0.10126638,489.47791,687.32209)"
       x="0"
       y="0"
       width="100%"
       height="100%" />
    <rect
       style="color:#000000;clip-rule:nonzero;display:inline;overflow:visible;visibility:visible;opacity:1;isolation:auto;mix-blend-mode:normal;color-interpolation:sRGB;color-interpolation-filters:linearRGB;solid-color:#000000;solid-opacity:1;fill:#0e232e;fill-opacity:1;fill-rule:nonzero;stroke:none;stroke-width:0.06401026;stroke-linecap:butt;stroke-linejoin:miter;stroke-miterlimit:4;stroke-dasharray:none;stroke-dashoffset:0;stroke-opacity:1;color-rendering:auto;image-rendering:auto;shape-rendering:auto;text-rendering:auto;enable-background:accumulate"
       id="rect448286"
       width="307.98285"
       height="5.7388105"
       x="288.85349"
       y="752.03113" />
    <rect
       style="color:#000000;clip-rule:nonzero;display:inline;overflow:visible;visibility:visible;opacity:1;isolation:auto;mix-blend-mode:normal;color-interpolation:sRGB;color-interpolation-filters:linearRGB;solid-color:#000000;solid-opacity:1;fill:#0e232e;fill-opacity:1;fill-rule:nonzero;stroke:none;stroke-width:0.06401026;stroke-linecap:butt;stroke-linejoin:miter;stroke-miterlimit:4;stroke-dasharray:none;stroke-dashoffset:0;stroke-opacity:1;color-rendering:auto;image-rendering:auto;shape-rendering:auto;text-rendering:auto;enable-background:accumulate"
       id="rect448288"
       width="1059.7671"
       height="78.430412"
       x="-1.9129369"
       y="897.41431" />
  </g>
</svg>
